 <svg  version="1.0" xmlns="http://www.w3.org/2000/svg"  width="546.000000pt" height="471.000000pt" viewBox="0 0 546.000000 471.000000"  preserveAspectRatio="xMidYMid meet">  <g transform="translate(0.000000,471.000000) scale(0.100000,-0.100000)" fill="#663a14" stroke="none"> <path d="M1075 4504 c-178 -43 -315 -96 -315 -120 0 -7 21 -28 48 -45 26 -18 49 -36 52 -39 3 -4 37 -31 75 -61 84 -65 88 -69 241 -199 281 -240 475 -419 650 -597 l100 -103 22 23 c12 13 22 26 22 30 0 4 9 17 19 29 10 13 56 69 100 126 121 152 343 367 481 464 l25 18 -35 30 c-65 57 -347 218 -490 279 -186 81 -349 130 -540 165 -110 21 -371 20 -455 0z"/> <path d="M3910 4494 c-228 -48 -282 -64 -453 -131 -90 -35 -347 -162 -374 -185 -18 -15 -50 -33 -81 -47 -12 -6 -28 -15 -35 -21 -6 -6 -37 -28 -68 -48 -211 -141 -244 -167 -417 -342 -118 -119 -332 -389 -332 -419 0 -5 -4 -11 -8 -13 -23 -9 -174 -286 -229 -418 -19 -47 -39 -89 -44 -94 -5 -6 -9 -19 -9 -29 0 -10 -6 -33 -14 -50 -28 -63 -83 -269 -126 -477 -52 -243 -45 -727 14 -1030 26 -134 35 -167 67 -267 53 -167 60 -187 68 -198 5 -5 12 -24 15 -42 8 -33 32 -85 56 -119 8 -11 56 -44 105 -74 50 -29 92 -56 95 -60 3 -3 23 -15 45 -27 22 -11 67 -35 100 -53 33 -18 83 -45 110 -60 28 -14 62 -34 76 -43 28 -19 66 -13 50 7 -9 11 -18 46 -47 181 -101 462 -76 1017 66 1515 87 308 220 623 363 861 31 53 57 100 57 104 0 24 287 418 374 514 155 170 217 231 341 337 117 101 352 274 371 274 4 0 15 6 23 14 18 15 104 65 166 95 109 53 217 101 227 101 5 0 22 6 36 14 41 20 154 56 178 56 12 0 28 7 35 16 11 14 9 19 -11 35 -23 17 -121 60 -200 88 -124 44 -456 64 -590 35z"/> <path d="M541 4234 c-67 -58 -184 -220 -233 -324 -59 -126 -90 -227 -118 -390 -37 -213 -23 -557 31 -765 6 -22 18 -67 26 -100 27 -104 80 -256 128 -368 50 -118 136 -286 185 -362 11 -16 23 -37 27 -45 23 -49 205 -306 269 -380 12 -14 52 -61 89 -105 112 -132 358 -371 520 -505 28 -23 62 -52 77 -66 24 -22 58 -33 58 -18 0 3 -11 38 -24 77 -29 86 -78 296 -100 422 -50 296 -37 740 30 1035 31 133 66 262 89 320 7 19 27 73 45 120 31 82 82 199 101 230 46 76 33 128 -74 290 -136 204 -412 490 -724 748 -126 105 -307 222 -342 222 -10 0 -36 -16 -60 -36z"/> <path d="M4790 4180 c-101 -35 -93 -31 -250 -110 -239 -119 -358 -199 -595 -399 -138 -117 -310 -295 -425 -441 -19 -24 -43 -52 -52 -62 -10 -10 -18 -20 -18 -23 0 -2 -21 -33 -47 -69 -168 -228 -327 -501 -451 -776 -74 -163 -169 -437 -212 -610 -11 -47 -23 -94 -26 -105 -8 -29 -30 -150 -56 -305 -19 -118 -22 -172 -23 -425 0 -294 2 -313 46 -545 26 -135 37 -160 69 -160 28 1 260 114 429 210 62 36 136 78 164 94 29 15 87 53 130 82 43 30 82 54 86 54 4 0 16 7 26 15 11 9 61 44 110 80 50 35 95 68 100 72 6 5 51 40 100 77 131 101 212 173 381 341 123 122 252 263 315 343 198 251 365 530 483 807 10 22 21 49 26 60 10 24 63 183 80 240 15 50 39 171 71 350 20 114 15 429 -10 555 -21 113 -38 183 -51 215 -4 11 -18 47 -30 80 -65 166 -222 387 -273 384 -7 0 -50 -13 -97 -29z"/> </g> </svg> 