 <svg  version="1.0" xmlns="http://www.w3.org/2000/svg"  width="1350.000000pt" height="873.000000pt" viewBox="0 0 1350.000000 873.000000"  preserveAspectRatio="xMidYMid meet">  <g transform="translate(0.000000,873.000000) scale(0.100000,-0.100000)" fill="#44260d" stroke="none"> <path d="M5440 6115 c-129 -19 -280 -75 -280 -103 0 -4 24 -26 53 -47 57 -43 328 -267 386 -319 221 -199 282 -255 380 -353 63 -62 117 -113 122 -113 4 0 18 15 30 33 86 124 303 358 408 440 87 68 94 76 80 93 -6 8 -51 39 -98 68 -287 177 -550 277 -806 306 -111 12 -166 11 -275 -5z"/> <path d="M7740 6104 c-173 -20 -401 -97 -595 -199 -128 -69 -148 -80 -159 -88 -11 -8 -62 -42 -196 -131 -83 -55 -252 -215 -343 -325 -39 -48 -74 -88 -77 -91 -10 -9 -160 -236 -160 -243 0 -3 -20 -41 -45 -83 -25 -41 -45 -78 -45 -81 0 -3 -7 -19 -15 -36 -19 -42 -59 -150 -96 -260 -126 -379 -135 -905 -22 -1307 8 -30 36 -111 61 -180 44 -122 74 -180 92 -180 5 0 60 -30 122 -68 62 -37 135 -78 161 -92 69 -36 87 -46 100 -59 13 -13 57 -15 57 -3 0 4 -4 12 -8 17 -13 15 -49 167 -64 270 -18 121 -17 580 0 700 36 240 126 568 202 730 16 35 30 67 30 70 0 7 83 176 125 254 33 60 55 96 144 231 154 236 383 484 601 651 101 78 237 168 300 199 25 12 54 27 65 33 77 42 138 68 244 102 83 28 120 44 118 54 -3 21 -103 69 -188 92 -72 19 -321 33 -409 23z"/> <path d="M4948 5862 c-173 -180 -278 -477 -278 -785 0 -179 64 -495 137 -672 62 -153 133 -295 196 -392 15 -24 27 -45 27 -47 0 -16 188 -271 259 -350 177 -200 518 -513 537 -494 3 3 -6 41 -19 84 -26 86 -46 169 -74 309 -26 130 -26 599 0 730 53 269 108 440 212 658 23 49 25 61 16 94 -14 52 -77 157 -147 244 -58 73 -265 286 -374 385 -156 142 -371 294 -415 294 -13 0 -44 -23 -77 -58z"/> <path d="M8400 5840 c-85 -32 -105 -41 -190 -84 -280 -143 -519 -333 -756 -601 -226 -256 -449 -626 -574 -950 -12 -33 -26 -69 -30 -80 -25 -62 -93 -288 -106 -349 -52 -241 -77 -491 -69 -691 8 -211 35 -406 62 -459 13 -24 19 -27 45 -22 16 3 69 26 116 50 78 40 120 63 273 145 24 13 70 41 102 62 32 22 62 39 67 39 5 0 15 6 22 13 7 7 49 37 93 67 105 71 266 191 345 260 96 83 348 336 408 410 125 156 165 209 204 275 23 39 52 84 64 101 44 60 171 325 199 414 10 30 27 82 37 115 119 362 114 737 -14 1035 -39 92 -102 192 -150 239 -37 36 -75 39 -148 11z"/> </g> </svg> 